<svg id="Layer_1" enable-background="new 0 0 512 512" height="512" viewBox="0 0 512 512" width="512" xmlns="http://www.w3.org/2000/svg"><g><g><g><g><path d="m314.509 278.345h-90.834c-9.016 0-16.326-7.309-16.326-16.326v-90.834c0-9.016 7.309-16.326 16.326-16.326h90.834c9.016 0 16.326 7.309 16.326 16.326v90.834c0 9.016-7.309 16.326-16.326 16.326z" fill="#ff7893"/><path d="m158.031 196.149h-90.834c-9.016 0-16.326-7.309-16.326-16.326v-90.833c0-9.016 7.309-16.326 16.326-16.326h90.834c9.016 0 16.326 7.309 16.326 16.326v90.834c0 9.016-7.31 16.325-16.326 16.325z" fill="#59a1a5"/></g><path d="m219.773 123.485h-90.833c-9.016 0-16.326-7.309-16.326-16.326v-90.833c0-9.017 7.309-16.326 16.326-16.326h90.834c9.016 0 16.326 7.309 16.326 16.326v90.834c-.001 9.016-7.31 16.325-16.327 16.325z" fill="#ff9e5e"/><path d="m219.773 0h-41.207c9.016 0 16.326 7.309 16.326 16.326v90.834c0 9.016-7.309 16.326-16.326 16.326h41.207c9.016 0 16.326-7.309 16.326-16.326v-90.834c0-9.017-7.309-16.326-16.326-16.326z" fill="#fa8d46"/></g><g><path d="m467.876 138.36h-57.691c-9.763 0-18.236 6.837-20.438 16.491l-66.851 281.965-231.338.293c-13.234.135-23.271 13.363-20.179 26.326 2.246 9.415 10.649 16.364 20.601 16.263l244.931-.153c10.27 1.289 20.545-6.13 22.875-16.343l67.076-282.252h41.015c11.587 0 20.979-9.534 20.979-21.295-.002-11.761-9.393-21.295-20.98-21.295z" fill="#ffd88f"/><path d="m365.841 436.72h-260.938c-22.594 0-42.262-15.675-47.624-37.955l-33.397-131.278c-3.75-14.741 7.286-29.093 22.372-29.093h366.836z" fill="#b5e8e0"/><path d="m371.884 238.393-47.25 198.327h41.207l47.25-198.327z" fill="#97dbd1"/><ellipse cx="163.084" cy="459.76" fill="#59a1a5" rx="51.463" ry="52.24"/><path d="m163.084 407.521c-7.328 0-14.294 1.565-20.604 4.368 18.163 8.067 30.859 26.46 30.859 47.872s-12.696 39.805-30.859 47.872c6.31 2.803 13.275 4.368 20.604 4.368 28.422 0 51.463-23.388 51.463-52.239 0-28.853-23.04-52.241-51.463-52.241z" fill="#419296"/><ellipse cx="314.999" cy="459.76" fill="#59a1a5" rx="51.463" ry="52.24"/><path d="m314.999 407.521c-7.529 0-14.673 1.655-21.119 4.604 17.886 8.184 30.344 26.427 30.344 47.636 0 21.208-12.458 39.451-30.344 47.635 6.446 2.949 13.59 4.604 21.119 4.604 28.422 0 51.463-23.388 51.463-52.239 0-28.852-23.041-52.24-51.463-52.24z" fill="#419296"/></g></g><g fill="#ffd88f"><path d="m279.835 30.623c-4.268 0-7.726 3.459-7.726 7.726v78.08c0 4.268 3.459 7.726 7.726 7.726s7.726-3.459 7.726-7.726v-78.08c0-4.268-3.458-7.726-7.726-7.726z"/><path d="m316.871 64.938c-4.268 0-7.726 3.459-7.726 7.726v43.766c0 4.268 3.459 7.726 7.726 7.726s7.726-3.459 7.726-7.726v-43.766c.001-4.268-3.458-7.726-7.726-7.726z"/></g></g></svg>